{
    "asset" : {
        "generator" : "Khronos glTF Blender I/O v3.4.50",
        "version" : "2.0"
    },
    "scene" : 0,
    "scenes" : [
        {
            "name" : "Scene",
            "nodes" : [
                1
            ]
        }
    ],
    "nodes" : [
        {
            "mesh" : 0,
            "name" : "memory_chip",
            "translation" : [
                5.650520324707031e-05,
                2.695087432861328,
                0
            ]
        },
        {
            "children" : [
                0
            ],
            "name" : "ram_group"
        }
    ],
    "materials" : [
        {
            "doubleSided" : true,
            "name" : "ram_chip_mat.001",
            "normalTexture" : {
                "index" : 0
            },
            "occlusionTexture" : {
                "index" : 1
            },
            "pbrMetallicRoughness" : {
                "baseColorTexture" : {
                    "index" : 2
                },
                "metallicRoughnessTexture" : {
                    "index" : 1
                }
            }
        }
    ],
    "meshes" : [
        {
            "name" : "Mesh",
            "primitives" : [
                {
                    "attributes" : {
                        "POSITION" : 0,
                        "TEXCOORD_0" : 1,
                        "NORMAL" : 2
                    },
                    "indices" : 3,
                    "material" : 0
                }
            ]
        }
    ],
    "textures" : [
        {
            "sampler" : 0,
            "source" : 0
        },
        {
            "sampler" : 0,
            "source" : 1
        },
        {
            "sampler" : 0,
            "source" : 2
        }
    ],
    "images" : [
        {
            "mimeType" : "image/png",
            "name" : "ram_chip_normal",
            "uri" : "ram_chip_normal.png"
        },
        {
            "mimeType" : "image/png",
            "name" : "ram_chip_ao-ram_chip_roughness-ram_chip_metallic",
            "uri" : "ram_chip_ao-ram_chip_roughness-ram_chip_metallic.png"
        },
        {
            "mimeType" : "image/png",
            "name" : "ram_chip_basecolor",
            "uri" : "ram_chip_basecolor.png"
        }
    ],
    "accessors" : [
        {
            "bufferView" : 0,
            "componentType" : 5126,
            "count" : 19528,
            "max" : [
                7.376246929168701,
                2.6950876712799072,
                0.34478330612182617
            ],
            "min" : [
                -7.376246929168701,
                -2.695087432861328,
                -0.34478330612182617
            ],
            "type" : "VEC3"
        },
        {
            "bufferView" : 1,
            "componentType" : 5126,
            "count" : 19528,
            "type" : "VEC2"
        },
        {
            "bufferView" : 2,
            "componentType" : 5126,
            "count" : 19528,
            "type" : "VEC3"
        },
        {
            "bufferView" : 3,
            "componentType" : 5123,
            "count" : 89496,
            "type" : "SCALAR"
        }
    ],
    "bufferViews" : [
        {
            "buffer" : 0,
            "byteLength" : 234336,
            "byteOffset" : 0,
            "target" : 34962
        },
        {
            "buffer" : 0,
            "byteLength" : 156224,
            "byteOffset" : 234336,
            "target" : 34962
        },
        {
            "buffer" : 0,
            "byteLength" : 234336,
            "byteOffset" : 390560,
            "target" : 34962
        },
        {
            "buffer" : 0,
            "byteLength" : 178992,
            "byteOffset" : 624896,
            "target" : 34963
        }
    ],
    "samplers" : [
        {
            "magFilter" : 9729,
            "minFilter" : 9987
        }
    ],
    "buffers" : [
        {
            "byteLength" : 803888,
            "uri" : "Ram_Chip.bin"
        }
    ]
}
