<?xml version="1.0" encoding="UTF-8"?>
<svg width="1440" height="40" viewBox="0 0 1440 40" xmlns="http://www.w3.org/2000/svg" aria-hidden="true">
  <defs>
    <linearGradient id="snow" x1="0" y1="0" x2="0" y2="1">
      <stop offset="0%" stop-color="#FFFFFF"/>
      <stop offset="100%" stop-color="#F3F4F6"/>
    </linearGradient>
    <filter id="shadow" x="-50%" y="-50%" width="200%" height="200%">
      <feDropShadow dx="0" dy="2" stdDeviation="3" flood-color="#0ea5e9" flood-opacity="0.15"/>
    </filter>
  </defs>
  <!-- Scalloped snow edge -->
  <path d="M0,8 C60,26 120,8 180,16 C240,24 300,8 360,16 C420,24 480,8 540,16 C600,24 660,8 720,16 C780,24 840,8 900,16 C960,24 1020,8 1080,16 C1140,24 1200,8 1260,16 C1320,24 1380,8 1440,16 L1440,40 L0,40 Z" fill="url(#snow)" filter="url(#shadow)"/>
</svg>
